<?xml version="1.0" standalone="no"?>
<!DOCTYPE svg PUBLIC "-//W3C//DTD SVG 20010904//EN"
 "http://www.w3.org/TR/2001/REC-SVG-20010904/DTD/svg10.dtd">
<svg version="1.0" xmlns="http://www.w3.org/2000/svg"
 width="1200.000000pt" height="630.000000pt" viewBox="0 0 1200.000000 630.000000"
 preserveAspectRatio="xMidYMid meet">

<g transform="translate(0.000000,630.000000) scale(0.100000,-0.100000)"
fill="#000000" stroke="none">
<path d="M3415 6185 c-139 -26 -226 -74 -316 -173 -63 -70 -101 -139 -126
-232 -17 -61 -18 -203 -18 -2630 0 -2427 1 -2569 18 -2630 29 -105 66 -169
147 -250 81 -82 143 -118 250 -147 61 -17 203 -18 2630 -18 2427 0 2569 1
2630 18 107 29 169 65 250 147 81 81 118 145 147 250 17 61 18 203 18 2630 0
2427 -1 2569 -18 2630 -29 105 -66 169 -147 250 -79 79 -140 116 -245 147 -57
17 -196 18 -2605 20 -2075 1 -2558 -1 -2615 -12z m1060 -670 c115 -24 226 -85
315 -174 84 -84 128 -152 166 -262 97 -276 -28 -607 -286 -759 -111 -66 -207
-92 -336 -92 -96 0 -121 3 -197 30 -121 41 -187 84 -274 176 -124 131 -176
262 -176 441 -1 124 13 186 66 295 81 166 258 306 437 344 86 19 199 19 285 1z
m2965 -1515 c426 -53 708 -279 856 -690 39 -108 51 -157 81 -325 l27 -150 4
-979 3 -978 -24 -38 c-47 -70 -47 -70 -492 -70 -443 0 -444 0 -491 69 l-24 36
0 800 c0 440 -5 843 -10 896 -25 260 -120 440 -270 512 -57 27 -184 57 -244
57 -58 0 -178 -29 -235 -57 -82 -40 -171 -135 -219 -235 -45 -94 -76 -193 -91
-288 -7 -41 -11 -357 -11 -869 0 -800 0 -803 -21 -841 -12 -21 -38 -47 -59
-59 -37 -20 -49 -21 -425 -21 -436 0 -435 0 -483 73 l-27 41 0 1480 0 1481 24
39 c49 78 37 76 479 76 435 0 436 0 483 -63 22 -29 24 -43 29 -177 l5 -145 18
33 c26 47 166 184 231 226 134 86 277 137 451 161 113 16 324 18 435 5z
m-2674 -66 c15 -11 37 -33 48 -48 21 -27 21 -28 21 -1520 l0 -1493 -29 -37
c-51 -67 -52 -67 -486 -64 -375 3 -390 4 -416 24 -15 11 -37 33 -48 48 -21 27
-21 31 -24 1494 -1 807 0 1481 3 1499 7 40 49 91 90 109 24 11 111 13 422 11
378 -2 393 -3 419 -23z"/>
</g>
</svg>
