<?xml version="1.0" standalone="no"?>
<!DOCTYPE svg PUBLIC "-//W3C//DTD SVG 20010904//EN"
 "http://www.w3.org/TR/2001/REC-SVG-20010904/DTD/svg10.dtd">
<svg version="1.0" xmlns="http://www.w3.org/2000/svg"
 width="2000.000000pt" height="1156.000000pt" viewBox="0 0 2000.000000 1156.000000"
 preserveAspectRatio="xMidYMid meet">

<g transform="translate(0.000000,1156.000000) scale(0.100000,-0.100000)"
fill="#000000" stroke="none">
<path d="M9495 11549 c-857 -50 -1665 -383 -2315 -955 -647 -568 -1094 -1368
-1240 -2217 -71 -420 -71 -892 0 -1314 90 -529 298 -1042 607 -1497 142 -210
269 -363 458 -552 407 -408 874 -706 1416 -904 125 -45 229 -41 288 13 50 47
52 60 51 465 0 206 -1 377 -3 378 -1 1 -40 -4 -87 -12 -132 -21 -410 -29 -524
-15 -314 40 -532 179 -643 411 -19 41 -55 116 -78 165 -98 204 -252 397 -367
462 -31 18 -79 55 -107 83 -42 41 -51 57 -51 85 0 44 26 62 111 76 98 16 202
-4 312 -59 117 -58 252 -189 353 -342 150 -228 312 -349 521 -390 138 -27 361
-2 523 59 l55 21 27 112 c32 133 85 247 157 336 28 34 51 64 51 67 0 3 -15 5
-34 5 -46 0 -248 35 -381 67 -663 156 -1077 537 -1234 1135 -55 210 -81 423
-81 665 0 411 101 697 362 1025 l28 35 -19 54 c-55 161 -71 426 -37 619 19
108 59 255 84 309 l17 36 80 3 c215 8 569 -129 902 -349 l73 -48 112 29 c119
30 296 61 463 82 61 8 216 12 395 12 250 0 319 -4 454 -22 152 -22 334 -57
442 -86 l51 -13 91 58 c219 140 454 253 642 306 106 31 309 44 326 22 16 -20
48 -119 78 -239 58 -239 51 -517 -20 -733 l-16 -49 35 -36 c63 -66 144 -189
200 -304 107 -219 145 -377 154 -638 16 -489 -84 -908 -294 -1224 -75 -114
-239 -284 -343 -358 -234 -164 -532 -276 -893 -333 -89 -15 -173 -29 -186 -31
l-24 -5 35 -37 c97 -104 151 -219 195 -412 15 -66 17 -154 18 -720 2 -700 0
-675 57 -726 70 -64 147 -65 308 -5 223 83 450 192 650 313 951 575 1614 1545
1800 2631 71 420 71 894 0 1314 -191 1115 -883 2103 -1870 2670 -522 300
-1086 466 -1705 503 -186 11 -237 11 -430 -1z"/>
<path d="M4925 3454 c-314 -30 -485 -78 -670 -189 -248 -148 -421 -376 -528
-696 -139 -413 -163 -1050 -58 -1514 94 -417 319 -730 638 -889 253 -126 513
-173 898 -163 183 5 240 10 340 31 164 35 309 85 445 154 l115 58 3 854 c2
676 0 855 -10 862 -7 4 -266 8 -576 8 l-562 0 -10 -26 c-6 -14 -10 -141 -10
-287 0 -221 2 -266 16 -285 15 -22 19 -22 235 -22 l219 0 0 -329 c0 -273 -2
-330 -14 -334 -41 -16 -236 -29 -366 -25 -124 5 -157 9 -229 34 -268 89 -423
335 -471 745 -19 158 -8 555 19 679 72 344 221 539 474 624 112 37 223 48 437
43 209 -5 304 -18 445 -59 98 -29 129 -32 142 -16 6 7 27 83 47 168 20 85 48
205 63 266 14 61 24 118 20 127 -13 33 -188 102 -334 131 -182 36 -576 64
-718 50z"/>
<path d="M9272 3318 c-16 -16 -18 -3209 -2 -3239 10 -18 25 -19 334 -19 300 0
324 1 339 18 16 17 17 80 17 705 l0 687 475 0 475 0 0 -689 c0 -614 2 -691 16
-705 13 -14 58 -16 334 -16 276 0 321 2 334 16 14 14 16 174 16 1615 0 1084
-3 1607 -10 1620 -10 18 -25 19 -338 19 -242 0 -331 -3 -340 -12 -9 -9 -12
-158 -12 -610 l0 -598 -475 0 -475 0 0 594 c0 527 -2 596 -16 610 -13 14 -58
16 -338 16 -237 0 -325 -3 -334 -12z"/>
<path d="M14298 3319 c-17 -9 -18 -97 -18 -1618 0 -1545 1 -1609 18 -1624 16
-15 48 -17 245 -17 260 0 249 -4 262 100 4 30 9 58 12 62 2 4 30 -10 61 -31
259 -176 642 -238 958 -155 267 69 445 295 518 654 35 173 41 258 41 545 0
296 -6 356 -50 520 -77 289 -247 484 -485 560 -240 75 -569 46 -802 -71 -37
-19 -70 -34 -73 -34 -3 0 -5 247 -5 548 0 413 -3 551 -12 560 -16 16 -644 17
-670 1z m1222 -1575 c141 -79 197 -264 187 -617 -9 -341 -54 -469 -187 -531
-38 -18 -64 -21 -170 -21 -138 0 -210 15 -318 65 l-62 29 2 508 3 508 50 24
c110 54 191 71 320 68 113 -2 123 -4 175 -33z"/>
<path d="M6708 3241 c-77 -25 -118 -52 -177 -116 -70 -77 -95 -145 -95 -261 0
-86 2 -96 37 -167 43 -87 102 -146 187 -186 48 -23 68 -26 160 -26 95 0 110 3
163 28 251 124 298 457 90 647 -96 88 -245 121 -365 81z"/>
<path d="M7772 2918 c-9 -9 -12 -96 -12 -329 l0 -316 -174 -42 c-164 -40 -175
-44 -186 -70 -7 -19 -10 -93 -8 -230 2 -166 6 -203 18 -211 8 -5 90 -10 183
-10 l167 0 0 -495 c0 -542 7 -644 49 -772 38 -112 83 -183 162 -257 117 -109
251 -158 484 -178 110 -10 147 -9 245 5 128 19 227 42 247 59 20 16 19 481 -1
497 -10 9 -47 10 -128 5 -181 -11 -292 28 -340 119 -23 42 -23 44 -26 530 l-3
487 238 0 c133 0 245 5 253 10 13 8 15 50 15 280 0 230 -2 272 -15 280 -8 5
-120 10 -252 10 l-238 0 0 314 c0 277 -2 315 -16 320 -9 3 -158 6 -333 6 -233
0 -320 -3 -329 -12z"/>
<path d="M6476 2268 c-14 -20 -16 -139 -16 -1078 0 -580 3 -1065 6 -1078 13
-48 40 -52 356 -52 250 0 297 2 316 16 l22 15 0 1093 c0 988 -2 1094 -16 1100
-9 3 -159 6 -334 6 -318 0 -319 0 -334 -22z"/>
<path d="M11930 2270 c-20 -20 -20 -33 -20 -769 0 -443 4 -791 10 -852 35
-347 180 -531 483 -615 125 -35 393 -45 537 -20 129 23 284 76 409 141 57 30
107 52 111 50 4 -3 11 -30 15 -60 10 -87 6 -85 241 -85 123 0 213 4 225 10 19
10 19 33 19 1100 0 976 -2 1090 -16 1104 -13 14 -57 16 -327 16 -179 0 -318
-4 -327 -10 -13 -8 -16 -112 -20 -806 l-5 -797 -68 -34 c-196 -99 -447 -97
-523 2 -54 72 -54 67 -54 867 0 725 0 738 -20 758 -19 19 -33 20 -335 20 -302
0 -316 -1 -335 -20z"/>
</g>
</svg>
