<?xml version="1.0" standalone="no"?>
<!DOCTYPE svg PUBLIC "-//W3C//DTD SVG 20010904//EN"
 "http://www.w3.org/TR/2001/REC-SVG-20010904/DTD/svg10.dtd">
<svg version="1.0" xmlns="http://www.w3.org/2000/svg"
 width="820.000000pt" height="512.000000pt" viewBox="0 0 820.000000 512.000000"
 preserveAspectRatio="xMidYMid meet">

<g transform="translate(0.000000,512.000000) scale(0.100000,-0.100000)"
fill="#000000" stroke="none">
<path d="M2345 5106 c-177 -43 -339 -204 -380 -378 -13 -55 -15 -335 -15
-2168 0 -2345 -5 -2175 70 -2301 72 -122 207 -221 338 -248 75 -16 3409 -16
3484 0 131 27 266 126 338 248 75 126 70 -44 70 2301 0 2342 5 2172 -70 2299
-71 122 -206 222 -338 250 -79 17 -3428 14 -3497 -3z m3509 -216 c67 -25 145
-105 172 -177 18 -46 19 -129 22 -2108 2 -1401 -1 -2082 -8 -2128 -13 -82 -35
-129 -87 -180 -51 -51 -99 -75 -175 -86 -88 -13 -3261 -13 -3350 -1 -83 12
-119 29 -176 84 -55 52 -79 97 -92 177 -14 89 -14 4089 0 4178 14 82 37 127
95 180 54 49 100 71 170 80 28 3 798 5 1712 4 1651 -3 1662 -3 1717 -23z"/>
<path d="M3513 4499 c-197 -25 -335 -229 -289 -429 21 -93 58 -163 122 -231
l54 -56 -57 -21 c-209 -77 -398 -277 -411 -436 -4 -48 -1 -56 23 -78 59 -55
236 -95 470 -104 l140 -6 -89 90 -89 91 75 179 74 179 -22 29 -23 30 74 -1
c72 0 74 0 59 -20 -8 -11 -17 -25 -20 -32 -3 -7 27 -92 67 -188 l72 -176 -89
-91 -89 -90 140 6 c226 9 393 45 468 99 40 31 38 97 -7 191 -71 146 -231 281
-399 336 l-38 12 56 59 c161 169 175 400 33 555 -72 79 -188 118 -305 103z"/>
<path d="M2959 2851 c-49 -50 -37 -121 26 -147 51 -21 2179 -21 2230 0 64 27
77 106 24 150 l-31 26 -1110 0 -1110 0 -29 -29z"/>
<path d="M2956 2424 c-50 -51 -27 -135 43 -154 50 -14 2152 -14 2203 0 46 13
68 43 68 91 0 26 -8 44 -26 63 l-27 26 -1117 0 -1117 0 -27 -26z"/>
<path d="M2956 1994 c-19 -19 -26 -37 -26 -64 0 -27 7 -45 26 -64 l27 -26
1117 0 1117 0 27 26 c19 19 26 37 26 64 0 27 -7 45 -26 64 l-27 26 -1117 0
-1117 0 -27 -26z"/>
<path d="M4075 1588 c-66 -17 -87 -103 -39 -152 l27 -26 577 0 577 0 27 26
c35 36 36 91 1 128 -13 14 -34 27 -47 28 -88 5 -1100 3 -1123 -4z"/>
<path d="M4385 736 c-29 -13 -55 -51 -55 -82 0 -29 29 -71 57 -83 21 -8 140
-11 432 -9 l403 3 24 28 c32 37 32 87 0 124 l-24 28 -404 2 c-318 2 -409 0
-433 -11z"/>
</g>
</svg>
